<?xml version="1.0" encoding="UTF-8"?>
<!DOCTYPE svg PUBLIC "-//W3C//DTD SVG 1.1//EN" "http://www.w3.org/Graphics/SVG/1.1/DTD/svg11.dtd">
<svg xmlns="http://www.w3.org/2000/svg" version="1.1" width="542px" height="329px" style="shape-rendering:geometricPrecision; text-rendering:geometricPrecision; image-rendering:optimizeQuality; fill-rule:evenodd; clip-rule:evenodd" xmlns:xlink="http://www.w3.org/1999/xlink">
<g><path style="opacity:0.198" fill="#91d4f4" d="M 79.5,-0.5 C 82.5,-0.5 85.5,-0.5 88.5,-0.5C 89.2625,0.26791 90.2625,0.76791 91.5,1C 87.3234,1.14468 83.3234,0.64468 79.5,-0.5 Z"/></g>
<g><path style="opacity:0.977" fill="#108bcb" d="M 258.5,16.5 C 223.764,17.1699 188.931,17.8365 154,18.5C 153.601,18.2716 153.435,17.9382 153.5,17.5C 188.283,4.5339 223.283,4.20057 258.5,16.5 Z"/></g>
<g><path style="opacity:0.938" fill="#2092ce" d="M 258.5,16.5 C 266.502,19.0564 274.169,22.3898 281.5,26.5C 271.013,27.4944 260.346,27.8278 249.5,27.5C 214.679,16.5054 180.012,16.8387 145.5,28.5C 141.03,27.5139 136.363,27.1805 131.5,27.5C 138.299,23.1022 145.633,19.7689 153.5,17.5C 153.435,17.9382 153.601,18.2716 154,18.5C 188.931,17.8365 223.764,17.1699 258.5,16.5 Z"/></g>
<g><path style="opacity:0.976" fill="#3ca0d4" d="M 281.5,26.5 C 289.483,31.1612 297.15,36.3278 304.5,42C 301.511,46.1543 298.177,49.9876 294.5,53.5C 280.844,42.5054 265.844,33.8388 249.5,27.5C 260.346,27.8278 271.013,27.4944 281.5,26.5 Z"/></g>
<g><path style="opacity:0.987" fill="#4da8d8" d="M 131.5,27.5 C 136.363,27.1805 141.03,27.5139 145.5,28.5C 129.805,34.1781 115.471,42.1781 102.5,52.5C 79.1902,50.51 55.5236,49.8433 31.5,50.5C 39.1505,44.8908 47.8171,41.7242 57.5,41C 75.1667,40.6667 92.8333,40.3333 110.5,40C 116.894,34.8033 123.894,30.6367 131.5,27.5 Z"/></g>
<g><path style="opacity:0.988" fill="#62b3dc" d="M 31.5,50.5 C 55.5236,49.8433 79.1902,50.51 102.5,52.5C 94.5285,58.8042 87.1951,65.8042 80.5,73.5C 80.1667,73.3333 79.8333,73.1667 79.5,73C 82.2567,68.8211 85.2567,64.8211 88.5,61C 78.8333,60.3333 69.1667,60.3333 59.5,61C 54.8276,61.6127 50.4943,63.1127 46.5,65.5C 37.5,64.8333 28.5,64.1667 19.5,63.5C 22.0905,57.9078 26.0905,53.5744 31.5,50.5 Z"/></g>
<g><path style="opacity:0.958" fill="#5aafda" d="M 489.5,56.5 C 476.5,57.1667 463.5,57.8333 450.5,58.5C 443.478,54.3277 436.311,50.3277 429,46.5C 428.989,43.1872 430.489,40.8539 433.5,39.5C 452.809,43.1594 471.476,48.8261 489.5,56.5 Z"/></g>
<g><path style="opacity:0.875" fill="#e31d23" d="M 291.5,97.5 C 291.5,97.8333 291.5,98.1667 291.5,98.5C 288.364,102.628 284.031,104.794 278.5,105C 273.618,106.141 269.785,104.641 267,100.5C 263.717,103.39 259.884,105.057 255.5,105.5C 253.626,105.61 252.126,104.944 251,103.5C 250.578,100.764 250.578,98.0977 251,95.5C 246.718,100.296 241.552,103.629 235.5,105.5C 233.626,105.61 232.126,104.944 231,103.5C 230.544,100.428 230.544,97.4284 231,94.5C 225.192,100.153 218.359,103.82 210.5,105.5C 206.234,106.041 203.9,104.208 203.5,100C 205.032,92.0761 208.699,90.7428 214.5,96C 212.128,97.4705 212.128,98.6372 214.5,99.5C 222.596,95.9182 229.429,90.5849 235,83.5C 239.58,77.3402 243.914,71.0069 248,64.5C 251.299,62.9496 253.799,63.7829 255.5,67C 249.115,76.9357 243.115,87.1024 237.5,97.5C 238,97.8333 238.5,98.1667 239,98.5C 251.293,89.8751 261.126,79.0418 268.5,66C 271.308,66.0706 273.641,67.2372 275.5,69.5C 270.47,76.6979 265.637,84.0312 261,91.5C 259.293,93.9088 258.46,96.5755 258.5,99.5C 263.866,98.9104 267.7,96.2437 270,91.5C 276.442,83.5182 284.609,80.5182 294.5,82.5C 296.363,88.2725 294.363,92.1058 288.5,94C 284.216,95.654 279.882,97.154 275.5,98.5C 276.438,99.5529 277.605,100.22 279,100.5C 283.01,99.6634 286.843,98.33 290.5,96.5C 291.107,96.6236 291.44,96.9569 291.5,97.5 Z M 284.5,86.5 C 286.942,86.3537 287.609,87.187 286.5,89C 276.841,94.0142 276.174,93.1809 284.5,86.5 Z"/></g>
<g><path style="opacity:0.755" fill="#e21d23" d="M 440.5,63.5 C 452.505,65.1656 456.672,71.8322 453,83.5C 447.472,89.957 440.972,91.1236 433.5,87C 427.191,79.8114 427.524,72.8114 434.5,66C 436.611,65.1553 438.611,64.322 440.5,63.5 Z M 447.5,83.5 C 447.16,81.321 446.16,79.4877 444.5,78C 447.309,76.412 447.975,74.2454 446.5,71.5C 443.442,69.8593 440.108,69.0259 436.5,69C 447.756,65.9236 452.256,70.0903 450,81.5C 449.292,82.3805 448.458,83.0472 447.5,83.5 Z M 435.5,83.5 C 431.71,79.4156 431.544,75.0823 435,70.5C 435.499,74.8206 435.666,79.1539 435.5,83.5 Z M 439.5,72.5 C 444.833,73.5 444.833,74.5 439.5,75.5C 439.5,74.5 439.5,73.5 439.5,72.5 Z M 447.5,83.5 C 443.54,87.4832 439.54,87.4832 435.5,83.5C 436.833,83.5 438.167,83.5 439.5,83.5C 439.459,77.2482 440.792,76.9148 443.5,82.5C 444.689,83.4287 446.022,83.762 447.5,83.5 Z"/></g>
<g><path style="opacity:0.872" fill="#e31d23" d="M 291.5,98.5 C 291.5,98.1667 291.5,97.8333 291.5,97.5C 296.926,85.9557 305.926,80.9557 318.5,82.5C 321.263,77.2985 324.263,72.2985 327.5,67.5C 329.887,67.9121 331.887,68.9121 333.5,70.5C 328.413,79.0053 323.58,87.672 319,96.5C 318.333,97.5 318.333,98.5 319,99.5C 321.518,97.5362 324.184,96.8695 327,97.5C 330.651,91.3643 334.818,85.6977 339.5,80.5C 341.33,80.7763 342.997,81.443 344.5,82.5C 341.758,88.0701 338.424,93.2367 334.5,98C 337.575,98.139 340.575,97.639 343.5,96.5C 343.617,98.4835 342.95,100.15 341.5,101.5C 338.117,103.128 334.617,104.461 331,105.5C 327.986,105.153 326.319,103.486 326,100.5C 322.007,103.609 317.507,105.109 312.5,105C 311.228,103.693 310.228,102.193 309.5,100.5C 305.12,104.68 300.12,105.846 294.5,104C 293.029,102.417 292.029,100.583 291.5,98.5 Z M 312.5,85.5 C 313.978,85.238 315.311,85.5713 316.5,86.5C 313.396,93.7019 308.063,98.0352 300.5,99.5C 300.372,97.3453 300.872,95.3453 302,93.5C 305.299,90.449 308.799,87.7823 312.5,85.5 Z"/></g>
<g><path style="opacity:0.875" fill="#e31d23" d="M 417.5,67.5 C 420.573,67.4528 422.906,68.6194 424.5,71C 418.948,80.2718 414.115,89.7718 410,99.5C 412.729,97.6787 415.563,97.012 418.5,97.5C 415.844,102.26 411.677,104.927 406,105.5C 403.743,104.91 402.076,103.577 401,101.5C 397.212,104.493 393.045,105.493 388.5,104.5C 387.416,103.335 386.583,102.002 386,100.5C 381.748,104.593 376.915,105.76 371.5,104C 369.959,102.421 368.792,100.587 368,98.5C 367.751,99.624 367.251,100.624 366.5,101.5C 360.028,104.769 353.362,105.602 346.5,104C 344.006,100.353 343.84,96.5193 346,92.5C 350.99,85.6731 357.656,81.6731 366,80.5C 371.09,80.8485 372.757,83.5152 371,88.5C 370,89.5 369,90.5 368,91.5C 364.925,90.6865 363.258,88.6865 363,85.5C 357.313,88.6665 353.813,93.3332 352.5,99.5C 357.56,99.6478 362.394,98.6478 367,96.5C 367.772,96.6448 368.439,96.9781 369,97.5C 374.54,85.2525 383.874,79.9192 397,81.5C 398.918,82.5418 400.751,83.7085 402.5,85C 399.276,89.6194 396.776,94.4527 395,99.5C 397.152,98.1147 399.485,97.1147 402,96.5C 408.197,87.443 413.363,77.7763 417.5,67.5 Z M 388.5,85.5 C 390.288,85.2148 391.955,85.5481 393.5,86.5C 390.053,92.613 385.053,96.9464 378.5,99.5C 377.337,97.4503 377.504,95.4503 379,93.5C 381.775,90.2203 384.942,87.5537 388.5,85.5 Z"/></g>
<g><path style="opacity:0.982" fill="#73bbe0" d="M 489.5,56.5 C 497.039,60.0958 504.039,64.4291 510.5,69.5C 496.969,69.8395 483.635,70.8395 470.5,72.5C 464.183,67.3409 457.516,62.6742 450.5,58.5C 463.5,57.8333 476.5,57.1667 489.5,56.5 Z"/></g>
<g><path style="opacity:0.862" fill="#e31d24" d="M 343.5,69.5 C 345.833,69.5 348.167,69.5 350.5,69.5C 350.696,73.6414 348.696,75.9748 344.5,76.5C 343,76.5472 342,75.8805 341.5,74.5C 342.174,72.8045 342.841,71.1379 343.5,69.5 Z"/></g>
<g><path style="opacity:0.988" fill="#7fc0e2" d="M 19.5,63.5 C 28.5,64.1667 37.5,64.8333 46.5,65.5C 41.2671,68.7443 37.9338,73.4109 36.5,79.5C 28.8333,79.5 21.1667,79.5 13.5,79.5C 13.7495,73.4069 15.7495,68.0736 19.5,63.5 Z"/></g>
<g><path style="opacity:0.981" fill="#8cc7e5" d="M 510.5,69.5 C 516.167,73.1667 520.833,77.8333 524.5,83.5C 510.167,83.5 495.833,83.5 481.5,83.5C 478.194,79.5271 474.527,75.8604 470.5,72.5C 483.635,70.8395 496.969,69.8395 510.5,69.5 Z"/></g>
<g><path style="opacity:0.971" fill="#9fd0e9" d="M 13.5,79.5 C 21.1667,79.5 28.8333,79.5 36.5,79.5C 35.2532,84.5504 35.5865,89.5504 37.5,94.5C 29.7347,93.188 22.0681,93.188 14.5,94.5C 12.5069,89.579 12.1736,84.579 13.5,79.5 Z"/></g>
<g><path style="opacity:0.998" fill="#a5d3ea" d="M 169.5,97.5 C 163.167,97.5 156.833,97.5 150.5,97.5C 150.5,92.5 150.5,87.5 150.5,82.5C 156.833,82.5 163.167,82.5 169.5,82.5C 169.5,87.5 169.5,92.5 169.5,97.5 Z"/></g>
<g><path style="opacity:0.986" fill="#a5d3eb" d="M 481.5,83.5 C 495.833,83.5 510.167,83.5 524.5,83.5C 527.891,87.6152 530.224,92.2819 531.5,97.5C 517.5,97.5 503.5,97.5 489.5,97.5C 487.339,92.5076 484.672,87.8409 481.5,83.5 Z"/></g>
<g><path style="opacity:0.988" fill="#b8dcef" d="M 489.5,97.5 C 503.5,97.5 517.5,97.5 531.5,97.5C 532.993,100.583 533.993,103.917 534.5,107.5C 520.579,106.518 506.579,106.185 492.5,106.5C 491.654,103.452 490.654,100.452 489.5,97.5 Z"/></g>
<g><path style="opacity:0.871" fill="#bfe0f0" d="M 37.5,94.5 C 41.4983,100.327 46.8316,104.493 53.5,107C 66.1107,108.254 78.7774,108.921 91.5,109C 93.7078,109.191 95.7078,109.691 97.5,110.5C 72.661,110.169 47.9944,110.502 23.5,111.5C 18.6786,106.86 15.6786,101.193 14.5,94.5C 22.0681,93.188 29.7347,93.188 37.5,94.5 Z"/></g>
<g><path style="opacity:0.997" fill="#bedff0" d="M 150.5,97.5 C 156.833,97.5 163.167,97.5 169.5,97.5C 169.5,101.833 169.5,106.167 169.5,110.5C 163.167,110.5 156.833,110.5 150.5,110.5C 150.5,106.167 150.5,101.833 150.5,97.5 Z"/></g>
<g><path style="opacity:0.976" fill="#d1e8f4" d="M 492.5,106.5 C 506.579,106.185 520.579,106.518 534.5,107.5C 534.5,111.833 534.5,116.167 534.5,120.5C 520.754,120.185 507.088,120.519 493.5,121.5C 493.587,116.463 493.254,111.463 492.5,106.5 Z"/></g>
<g><path style="opacity:0.991" fill="#d7ebf5" d="M 97.5,110.5 C 106.908,111.87 114.908,115.87 121.5,122.5C 94.8333,123.167 68.1667,123.833 41.5,124.5C 34.3583,121.684 28.3583,117.35 23.5,111.5C 47.9944,110.502 72.661,110.169 97.5,110.5 Z"/></g>
<g><path style="opacity:0.997" fill="#d7ebf5" d="M 150.5,110.5 C 156.833,110.5 163.167,110.5 169.5,110.5C 169.5,114.833 169.5,119.167 169.5,123.5C 163.167,123.5 156.833,123.5 150.5,123.5C 150.5,119.167 150.5,114.833 150.5,110.5 Z"/></g>
<g><path style="opacity:0.997" fill="#eef6fa" d="M 150.5,123.5 C 156.833,123.5 163.167,123.5 169.5,123.5C 169.5,130.5 169.5,137.5 169.5,144.5C 163.167,144.5 156.833,144.5 150.5,144.5C 150.5,137.5 150.5,130.5 150.5,123.5 Z"/></g>
<g><path style="opacity:0.954" fill="#eff7fa" d="M 534.5,120.5 C 533.404,128.888 531.071,136.888 527.5,144.5C 515.5,144.5 503.5,144.5 491.5,144.5C 493.065,136.934 493.731,129.267 493.5,121.5C 507.088,120.519 520.754,120.185 534.5,120.5 Z"/></g>
<g><path style="opacity:0.956" fill="#edf6fa" d="M 121.5,122.5 C 128.381,128.252 132.714,135.585 134.5,144.5C 126.833,144.5 119.167,144.5 111.5,144.5C 107.476,137.319 101.476,132.486 93.5,130C 80.5556,128.744 67.5556,128.077 54.5,128C 50.006,127.294 45.6726,126.127 41.5,124.5C 68.1667,123.833 94.8333,123.167 121.5,122.5 Z"/></g>
<g><path style="opacity:0.928" fill="#f2f8fb" d="M 240.5,144.5 C 232.167,144.5 223.833,144.5 215.5,144.5C 219.63,139.869 223.963,135.369 228.5,131C 237.167,130.333 245.833,130.333 254.5,131C 249.965,135.703 245.298,140.203 240.5,144.5 Z"/></g>
<g><path style="opacity:0.862" fill="#eff7fa" d="M 359.5,144.5 C 356.5,144.5 353.5,144.5 350.5,144.5C 348.937,138.767 347.271,132.933 345.5,127C 345.645,126.228 345.978,125.561 346.5,125C 349.55,124.321 352.55,123.488 355.5,122.5C 357.99,129.615 359.323,136.948 359.5,144.5 Z"/></g>
<g><path style="opacity:1" fill="#bbddf0" d="M 491.5,144.5 C 503.5,144.5 515.5,144.5 527.5,144.5C 527.107,146.284 526.441,147.95 525.5,149.5C 513.833,149.5 502.167,149.5 490.5,149.5C 491.038,147.883 491.371,146.216 491.5,144.5 Z"/></g>
<g><path style="opacity:1" fill="#a9d4eb" d="M 111.5,144.5 C 119.167,144.5 126.833,144.5 134.5,144.5C 135.265,147.096 135.599,149.763 135.5,152.5C 127.833,152.5 120.167,152.5 112.5,152.5C 112.425,149.794 112.092,147.127 111.5,144.5 Z"/></g>
<g><path style="opacity:1" fill="#a9d4eb" d="M 150.5,144.5 C 156.833,144.5 163.167,144.5 169.5,144.5C 169.5,147.167 169.5,149.833 169.5,152.5C 163.167,152.5 156.833,152.5 150.5,152.5C 150.5,149.833 150.5,147.167 150.5,144.5 Z"/></g>
<g><path style="opacity:0.998" fill="#a8d4eb" d="M 215.5,144.5 C 223.833,144.5 232.167,144.5 240.5,144.5C 238.167,147.5 235.5,150.167 232.5,152.5C 224.167,152.5 215.833,152.5 207.5,152.5C 209.833,149.5 212.5,146.833 215.5,144.5 Z"/></g>
<g><path style="opacity:1" fill="#a8d5eb" d="M 350.5,144.5 C 353.5,144.5 356.5,144.5 359.5,144.5C 360.473,146.948 360.806,149.615 360.5,152.5C 357.5,152.5 354.5,152.5 351.5,152.5C 350.735,149.904 350.401,147.237 350.5,144.5 Z"/></g>
<g><path style="opacity:0.96" fill="#94cbe7" d="M 490.5,149.5 C 502.167,149.5 513.833,149.5 525.5,149.5C 524.752,151.332 523.752,152.999 522.5,154.5C 511.5,154.5 500.5,154.5 489.5,154.5C 489.629,152.784 489.962,151.117 490.5,149.5 Z"/></g>
<g><path style="opacity:0.999" fill="#7ec0e2" d="M 207.5,152.5 C 215.833,152.5 224.167,152.5 232.5,152.5C 231.5,154.167 230.167,155.5 228.5,156.5C 220.316,156.826 212.316,156.492 204.5,155.5C 205.167,154.167 206.167,153.167 207.5,152.5 Z"/></g>
<g><path style="opacity:0.977" fill="#6eb8df" d="M 489.5,154.5 C 500.5,154.5 511.5,154.5 522.5,154.5C 521.974,156.23 520.974,157.564 519.5,158.5C 508.833,158.5 498.167,158.5 487.5,158.5C 487.989,157.005 488.655,155.671 489.5,154.5 Z"/></g>
<g><path style="opacity:0.975" fill="#67b4dd" d="M 112.5,152.5 C 120.167,152.5 127.833,152.5 135.5,152.5C 135.492,155.545 135.159,158.545 134.5,161.5C 126.648,161.825 118.982,161.492 111.5,160.5C 112.092,157.873 112.425,155.206 112.5,152.5 Z"/></g>
<g><path style="opacity:0.997" fill="#67b4dd" d="M 150.5,152.5 C 156.833,152.5 163.167,152.5 169.5,152.5C 169.5,155.5 169.5,158.5 169.5,161.5C 163.167,161.5 156.833,161.5 150.5,161.5C 150.5,158.5 150.5,155.5 150.5,152.5 Z"/></g>
<g><path style="opacity:0.969" fill="#67b4dd" d="M 351.5,152.5 C 354.5,152.5 357.5,152.5 360.5,152.5C 360.368,155.57 360.701,158.57 361.5,161.5C 358.5,161.5 355.5,161.5 352.5,161.5C 352.037,158.518 351.704,155.518 351.5,152.5 Z"/></g>
<g><path style="opacity:0.948" fill="#319ad1" d="M 111.5,160.5 C 118.982,161.492 126.648,161.825 134.5,161.5C 134.065,164.157 133.065,166.491 131.5,168.5C 122.833,168.5 114.167,168.5 105.5,168.5C 107.916,166.092 109.916,163.426 111.5,160.5 Z"/></g>
<g><path style="opacity:0.965" fill="#40a2d5" d="M 204.5,155.5 C 212.316,156.492 220.316,156.826 228.5,156.5C 225.167,160.5 221.5,164.167 217.5,167.5C 209.167,167.5 200.833,167.5 192.5,167.5C 196.167,163.167 200.167,159.167 204.5,155.5 Z"/></g>
<g><path style="opacity:1" fill="#369cd2" d="M 487.5,158.5 C 498.167,158.5 508.833,158.5 519.5,158.5C 518.241,162.025 516.241,165.025 513.5,167.5C 503.75,167.806 494.084,167.473 484.5,166.5C 485.5,163.833 486.5,161.167 487.5,158.5 Z"/></g>
<g><path style="opacity:0.988" fill="#0b83c6" d="M 484.5,166.5 C 494.084,167.473 503.75,167.806 513.5,167.5C 508.219,175.114 502.219,182.114 495.5,188.5C 494.244,188.461 493.244,188.961 492.5,190C 488.833,190.167 485.167,190.333 481.5,190.5C 477.435,190.489 473.768,189.822 470.5,188.5C 475.68,181.469 480.347,174.135 484.5,166.5 Z"/></g>
<g><path style="opacity:0.992" fill="#0a83c6" d="M 105.5,168.5 C 114.167,168.5 122.833,168.5 131.5,168.5C 129.73,173.713 126.73,178.047 122.5,181.5C 85.9455,180.85 49.6121,181.516 13.5,183.5C 13.5,181.167 13.5,178.833 13.5,176.5C 39.1688,176.667 64.8355,176.5 90.5,176C 96.3541,175.073 101.354,172.573 105.5,168.5 Z"/></g>
<g><path style="opacity:0.976" fill="#0d82c4" d="M 192.5,167.5 C 200.833,167.5 209.167,167.5 217.5,167.5C 211.811,174.186 206.144,180.853 200.5,187.5C 200.414,188.496 200.748,189.329 201.5,190C 191.325,190.825 181.325,190.658 171.5,189.5C 178.5,182.167 185.5,174.833 192.5,167.5 Z"/></g>
<g><path style="opacity:0.995" fill="#0f7ec2" d="M 122.5,181.5 C 114.534,189.483 104.868,194.316 93.5,196C 66.8354,196.5 40.1687,196.667 13.5,196.5C 13.5,192.167 13.5,187.833 13.5,183.5C 49.6121,181.516 85.9455,180.85 122.5,181.5 Z"/></g>
<g><path style="opacity:0.998" fill="#1183c5" d="M 150.5,161.5 C 156.833,161.5 163.167,161.5 169.5,161.5C 169.5,171.167 169.5,180.833 169.5,190.5C 163.167,190.5 156.833,190.5 150.5,190.5C 150.5,180.833 150.5,171.167 150.5,161.5 Z"/></g>
<g><path style="opacity:0.964" fill="#147bc0" d="M 285.5,205.5 C 278.833,206.167 272.167,206.833 265.5,207.5C 260.097,199.033 255.431,190.033 251.5,180.5C 258.5,179.167 265.5,179.167 272.5,180.5C 276.066,189.301 280.399,197.634 285.5,205.5 Z"/></g>
<g><path style="opacity:0.99" fill="#1777bc" d="M 200.5,187.5 C 210.505,197.506 220.172,207.839 229.5,218.5C 221.92,219.466 214.253,219.799 206.5,219.5C 199.504,213.338 193.004,206.671 187,199.5C 180.964,205.369 175.13,211.369 169.5,217.5C 163.455,219.393 157.121,220.06 150.5,219.5C 150.5,209.833 150.5,200.167 150.5,190.5C 156.833,190.5 163.167,190.5 169.5,190.5C 170.167,190.167 170.833,189.833 171.5,189.5C 181.325,190.658 191.325,190.825 201.5,190C 200.748,189.329 200.414,188.496 200.5,187.5 Z"/></g>
<g><path style="opacity:0.972" fill="#137bbf" d="M 342.5,206.5 C 335.5,206.5 328.5,206.5 321.5,206.5C 322.928,197.519 323.261,188.519 322.5,179.5C 329.5,179.5 336.5,179.5 343.5,179.5C 343.599,188.521 343.266,197.521 342.5,206.5 Z"/></g>
<g><path style="opacity:0.885" fill="#197bbf" d="M 352.5,161.5 C 355.5,161.5 358.5,161.5 361.5,161.5C 361.156,183.721 356.656,205.054 348,225.5C 346.159,229.857 343.826,233.857 341,237.5C 340.5,237.167 340,236.833 339.5,236.5C 350.142,212.621 354.475,187.621 352.5,161.5 Z"/></g>
<g><path style="opacity:0.963" fill="#1877bc" d="M 470.5,188.5 C 473.768,189.822 477.435,190.489 481.5,190.5C 485.167,190.333 488.833,190.167 492.5,190C 493.244,188.961 494.244,188.461 495.5,188.5C 483.322,201.247 469.988,212.58 455.5,222.5C 449.926,220.547 443.926,219.88 437.5,220.5C 449.796,211.204 460.796,200.538 470.5,188.5 Z"/></g>
<g><path style="opacity:0.963" fill="#1d72b8" d="M 285.5,205.5 C 289.767,211.436 294.767,216.77 300.5,221.5C 293.24,223.465 285.573,224.132 277.5,223.5C 272.353,219.021 268.353,213.687 265.5,207.5C 272.167,206.833 278.833,206.167 285.5,205.5 Z"/></g>
<g><path style="opacity:0.997" fill="#2769b0" d="M 169.5,217.5 C 169.5,227.5 169.5,237.5 169.5,247.5C 163.167,247.5 156.833,247.5 150.5,247.5C 150.5,238.167 150.5,228.833 150.5,219.5C 157.121,220.06 163.455,219.393 169.5,217.5 Z"/></g>
<g><path style="opacity:0.978" fill="#2768b1" d="M 229.5,218.5 C 238.633,227.802 247.633,237.302 256.5,247C 247.833,247.667 239.167,247.667 230.5,247C 221.896,238.238 213.896,229.071 206.5,219.5C 214.253,219.799 221.92,219.466 229.5,218.5 Z"/></g>
<g><path style="opacity:0.983" fill="#256ab2" d="M 321.5,206.5 C 328.5,206.5 335.5,206.5 342.5,206.5C 340.868,220.693 337.534,234.36 332.5,247.5C 325.167,247.5 317.833,247.5 310.5,247.5C 297.187,242.498 286.187,234.498 277.5,223.5C 285.573,224.132 293.24,223.465 300.5,221.5C 305.303,225.502 310.636,228.336 316.5,230C 319.249,222.423 320.916,214.59 321.5,206.5 Z"/></g>
<g><path style="opacity:0.953" fill="#2768b1" d="M 437.5,220.5 C 443.926,219.88 449.926,220.547 455.5,222.5C 441.493,232.175 426.826,240.841 411.5,248.5C 406.833,247.833 402.167,247.167 397.5,246.5C 411.138,238.345 424.471,229.678 437.5,220.5 Z"/></g>
<g><path style="opacity:0.9" fill="#2c64ad" d="M 90.5,255.5 C 88.3926,256.468 86.0593,256.802 83.5,256.5C 73.4678,243.101 67.3011,228.101 65,211.5C 70.4364,228.065 78.9364,242.732 90.5,255.5 Z"/></g>
<g><path style="opacity:0.93" fill="#315ea9" d="M 397.5,246.5 C 402.167,247.167 406.833,247.833 411.5,248.5C 388.721,260.396 364.721,268.563 339.5,273C 359.118,264.847 378.452,256.013 397.5,246.5 Z"/></g>
<g><path style="opacity:0.967" fill="#345ca7" d="M 310.5,247.5 C 317.833,247.5 325.167,247.5 332.5,247.5C 329.303,257.456 324.969,266.789 319.5,275.5C 312.266,274.802 304.933,274.136 297.5,273.5C 302.886,265.396 307.219,256.729 310.5,247.5 Z"/></g>
<g><path style="opacity:0.911" fill="#3c55a1" d="M 90.5,255.5 C 103.863,269.533 119.196,280.867 136.5,289.5C 131.265,291.45 125.598,292.117 119.5,291.5C 104.879,282.546 92.8791,270.879 83.5,256.5C 86.0593,256.802 88.3926,256.468 90.5,255.5 Z"/></g>
<g><path style="opacity:0.989" fill="#3f529e" d="M 297.5,273.5 C 304.933,274.136 312.266,274.802 319.5,275.5C 316.664,281.178 313.331,286.511 309.5,291.5C 301.826,291.666 294.159,291.5 286.5,291C 287.738,290.31 287.738,289.81 286.5,289.5C 290.167,284.167 293.833,278.833 297.5,273.5 Z"/></g>
<g><path style="opacity:0.953" fill="#494a98" d="M 286.5,289.5 C 287.738,289.81 287.738,290.31 286.5,291C 294.159,291.5 301.826,291.666 309.5,291.5C 302.644,302.03 294.311,311.363 284.5,319.5C 279.636,315.47 275.302,310.97 271.5,306C 276.353,300.316 281.353,294.816 286.5,289.5 Z"/></g>
<g><path style="opacity:0.937" fill="#4b4795" d="M 136.5,289.5 C 176.06,309.779 217.393,314.612 260.5,304C 248.448,310.932 235.448,314.932 221.5,316C 184.531,319.423 150.531,311.256 119.5,291.5C 125.598,292.117 131.265,291.45 136.5,289.5 Z"/></g>
</svg>
